<?xml version="1.0" encoding="utf-8"?>
<!-- Generator: Adobe Illustrator 17.0.0, SVG Export Plug-In . SVG Version: 6.00 Build 0)  -->
<!DOCTYPE svg PUBLIC "-//W3C//DTD SVG 1.1//EN" "http://www.w3.org/Graphics/SVG/1.1/DTD/svg11.dtd">
<svg version="1.1" id="Layer_1" xmlns="http://www.w3.org/2000/svg" xmlns:xlink="http://www.w3.org/1999/xlink" x="0px" y="0px"
	 width="49.013px" height="39.817px" viewBox="0 0 49.013 39.817" enable-background="new 0 0 49.013 39.817" xml:space="preserve">
<path fill="#333333" d="M47.263,3.5H1.75C0.783,3.5,0,2.717,0,1.75S0.783,0,1.75,0h45.513c0.967,0,1.75,0.783,1.75,1.75
	S48.229,3.5,47.263,3.5z"/>
<path fill="#333333" d="M47.263,21.659H1.75c-0.967,0-1.75-0.783-1.75-1.75s0.783-1.75,1.75-1.75h45.513
	c0.967,0,1.75,0.783,1.75,1.75S48.229,21.659,47.263,21.659z"/>
<path fill="#333333" d="M47.263,39.817H1.75c-0.967,0-1.75-0.783-1.75-1.75s0.783-1.75,1.75-1.75h45.513
	c0.967,0,1.75,0.783,1.75,1.75S48.229,39.817,47.263,39.817z"/>
</svg>
