<?xml version="1.0" encoding="utf-8"?>
<!-- Generator: Adobe Illustrator 17.0.0, SVG Export Plug-In . SVG Version: 6.00 Build 0)  -->
<!DOCTYPE svg PUBLIC "-//W3C//DTD SVG 1.1//EN" "http://www.w3.org/Graphics/SVG/1.1/DTD/svg11.dtd">
<svg version="1.1" id="btn_close" xmlns="http://www.w3.org/2000/svg" xmlns:xlink="http://www.w3.org/1999/xlink" x="0px" y="0px"
	 width="54.999px" height="54.997px" viewBox="0.001 55 54.999 54.997" enable-background="new 0.001 55 54.999 54.997"
	 xml:space="preserve">
<path fill="#FFFFFF" d="M30.087,82.5l24.376-24.378c0.715-0.715,0.715-1.871,0-2.586s-1.871-0.715-2.586,0L27.501,79.913
	L3.123,55.536c-0.715-0.715-1.871-0.715-2.586,0s-0.715,1.871,0,2.586l24.377,24.377L0.537,106.875
	c-0.715,0.715-0.715,1.871,0,2.586c0.357,0.358,0.825,0.536,1.293,0.536s0.936-0.179,1.293-0.536l24.378-24.377l24.377,24.377
	c0.357,0.357,0.825,0.536,1.293,0.536s0.936-0.179,1.293-0.536c0.715-0.715,0.715-1.871,0-2.586L30.087,82.5z"/>
</svg>
