<?xml version="1.0" encoding="utf-8"?>
<!-- Generator: Adobe Illustrator 17.0.0, SVG Export Plug-In . SVG Version: 6.00 Build 0)  -->
<!DOCTYPE svg PUBLIC "-//W3C//DTD SVG 1.1//EN" "http://www.w3.org/Graphics/SVG/1.1/DTD/svg11.dtd">
<svg version="1.1" id="Layer_1" xmlns="http://www.w3.org/2000/svg" xmlns:xlink="http://www.w3.org/1999/xlink" x="0px" y="0px"
	 width="245.182px" height="69.421px" viewBox="0 0 245.182 69.421" enable-background="new 0 0 245.182 69.421"
	 xml:space="preserve">
<path fill="#EC4444" d="M10.258,59.52c3.18,3.102,6.836,5.528,10.974,7.276c4.134,1.752,8.506,2.624,13.121,2.624
	c4.45,0,8.744-0.872,12.882-2.624c4.134-1.748,7.832-4.175,11.093-7.276c3.258-3.101,5.882-6.758,7.872-10.974
	c1.987-4.212,2.982-8.786,2.982-13.717c0-4.611-0.995-9.024-2.982-13.24c-1.99-4.212-4.533-7.91-7.634-11.093
	c-3.101-3.18-6.761-5.725-10.974-7.634C43.377,0.954,38.963,0,34.353,0c-4.771,0-9.226,0.954-13.36,2.862
	c-4.137,1.909-7.753,4.454-10.854,7.634C7.038,13.68,4.57,17.377,2.744,21.59C0.913,25.805,0,30.219,0,34.829
	c0,4.932,0.913,9.505,2.744,13.717C4.57,52.763,7.075,56.419,10.258,59.52z M16.222,28.15c0.794-2.225,1.987-4.294,3.578-6.203
	c1.588-1.908,3.616-3.459,6.083-4.652c2.464-1.193,5.286-1.789,8.469-1.789c2.542,0,5.01,0.559,7.395,1.67
	c2.386,1.115,4.45,2.546,6.202,4.294c1.748,1.752,3.18,3.78,4.294,6.083c1.11,2.307,1.67,4.734,1.67,7.276
	c0,3.023-0.596,5.726-1.789,8.111c-1.193,2.386-2.743,4.413-4.652,6.083c-1.909,1.67-4.056,2.945-6.441,3.817
	c-2.386,0.876-4.615,1.312-6.68,1.312c-5.569,0-10.18-1.826-13.837-5.487c-3.66-3.656-5.487-8.268-5.487-13.836
	C15.029,32.604,15.424,30.379,16.222,28.15z"/>
<path fill="#5B9AE8" d="M242.439,48.547c1.83-4.212,2.744-8.786,2.744-13.717c0-4.611-0.913-9.024-2.744-13.24
	c-1.826-4.212-4.294-7.91-7.395-11.093c-3.101-3.18-6.717-5.725-10.854-7.634C220.055,0.954,215.601,0,210.829,0
	c-4.611,0-9.024,0.954-13.24,2.862c-4.212,1.909-7.872,4.454-10.974,7.634c-3.101,3.183-5.644,6.881-7.634,11.093
	c-1.987,4.216-2.982,8.629-2.982,13.24c0,4.932,0.995,9.505,2.982,13.717c1.99,4.216,4.615,7.872,7.872,10.974
	c3.262,3.102,6.959,5.528,11.093,7.276c4.137,1.752,8.431,2.624,12.882,2.624c4.615,0,8.987-0.872,13.121-2.624
	c4.137-1.748,7.794-4.175,10.974-7.276C238.107,56.419,240.612,52.763,242.439,48.547z M230.153,34.829
	c0,5.569-1.826,10.18-5.487,13.836c-3.657,3.66-8.268,5.487-13.837,5.487c-2.065,0-4.294-0.436-6.68-1.312
	c-2.386-0.872-4.532-2.147-6.441-3.817c-1.908-1.67-3.459-3.698-4.652-6.083c-1.193-2.386-1.789-5.088-1.789-8.111
	c0-2.542,0.559-4.969,1.67-7.276c1.115-2.304,2.546-4.331,4.294-6.083c1.752-1.748,3.817-3.18,6.202-4.294
	c2.386-1.11,4.853-1.67,7.395-1.67c3.183,0,6.005,0.596,8.469,1.789c2.467,1.193,4.495,2.743,6.083,4.652
	c1.592,1.909,2.784,3.978,3.578,6.203C229.758,30.379,230.153,32.604,230.153,34.829z"/>
<path fill="#111111" d="M104.426,27.928l-14.702,15c-4.8,4.8-8.201,9.803-8.201,13c0,1.8,0.454,3.137,2.156,4.834
	c1.697,1.702,2.843,1.967,4.643,1.967c4.2,0,11-5,16.4-11l8.4-7.8c3.398-2.798,7.304-4.189,10.506-4.189
	c3.11,0,4.877,0.754,5.422,0.972c1.284,0.515,2.87,1.52,4.473,2.917l7.2,6.9c6.398,6.403,13.297,11.6,16.7,11.6
	c1.997,0,3.297-0.544,4.699-2.147c1.396-1.599,1.5-2.449,1.5-4.053c0.197-1.8-0.403-3.698-1.8-5.7c-1.401-1.997-3.3-4.2-5.7-6.6
	l-14.292-14.8c-0.87-0.869-1.744-1.78-2.579-2.734c0,0-6.138-6.613-9.951-8.238c-3.602-1.535-7.625-1.75-11.625-0.313
	C113.509,19.042,106.464,25.849,104.426,27.928z"/>
</svg>
